<?xml version="1.0" encoding="UTF-8"?>
<svg inkscape:version="1.0.2 (e86c870879, 2021-01-15, custom)" sodipodi:docname="lucene.svg" version="1.1" viewBox="0 0 314.3 48.5" xmlns="http://www.w3.org/2000/svg" xmlns:cc="http://creativecommons.org/ns#" xmlns:dc="http://purl.org/dc/elements/1.1/" xmlns:inkscape="http://www.inkscape.org/namespaces/inkscape" xmlns:rdf="http://www.w3.org/1999/02/22-rdf-syntax-ns#" xmlns:sodipodi="http://sodipodi.sourceforge.net/DTD/sodipodi-0.dtd">
 <sodipodi:namedview id="cvfa" bordercolor="#666666" borderopacity="1.0" fit-margin-bottom="0" fit-margin-left="0" fit-margin-right="0" fit-margin-top="0" inkscape:current-layer="layer1" inkscape:cx="447.92462" inkscape:cy="-73.740435" inkscape:document-rotation="0" inkscape:document-units="mm" inkscape:pageopacity="0.0" inkscape:pageshadow="2" inkscape:window-height="1014" inkscape:window-maximized="1" inkscape:window-width="1920" inkscape:window-x="0" inkscape:window-y="36" inkscape:zoom="0.49497475" pagecolor="#ffffff" showgrid="false"/>
 <title>Apache Lucene logo (pre 2021)</title>
 <metadata>
  <rdf:RDF>
   <cc:Work rdf:about="">
    <dc:format>image/svg+xml</dc:format>
    <dc:type rdf:resource="http://purl.org/dc/dcmitype/StillImage"/>
    <dc:title>Apache Lucene logo (pre 2021)</dc:title>
   </cc:Work>
  </rdf:RDF>
 </metadata>
 <g transform="translate(238.5 -95.26)" inkscape:groupmode="layer">
  <g transform="translate(43.7 -62.14)">
   <path d="m-240 205.5c-2.412-.5843-4.288-1.604-5.565-3.025-2.315-2.575-2.302-4.588.071-11.2.8788-2.447 1.598-4.59 1.598-4.762 4e-5-.2374-3.443-.3133-14.22-.3133-15.44 0-17.12-.1198-19.44-1.38-2.629-1.431-4.798-4.647-4.651-6.898.0648-.9969.2069-1.301.7502-1.605.6262-.35.858-.2818 3.518 1.034 3.385 1.674 4.112 1.771 10.01 1.328 7.125-.535 19.26-1.632 20.41-1.845.6536-.1212-3.522-.267-10.13-.354-6.52-.0858-11.78-.2682-12.52-.4343-1.874-.4218-2.973-1.019-4.582-2.49-2.435-2.225-3.53-4.777-2.636-6.142.6291-.9602 1.365-.8241 3.533.6531 2.304 1.57 3.236 1.858 6.015 1.86 4.074.002 22.69-1.604 24.36-2.102.4817-.1439-3.151-.2442-9.541-.2633-11.04-.0331-13.52-.2094-15.23-1.083-3.735-1.906-6.754-8.077-4.388-8.971.7317-.2765 1.285.0171 3.039 1.612 2.17 1.974 3.284 2.207 8.742 1.829 4.877-.3371 15.5-1.39 27.85-2.761 9.938-1.103 10.76-1.019 11.9 1.219.4461.8744.5334 1.405.4232 2.571-.1874 1.983-.631 3.186-3.368 9.135-5.535 12.03-7.933 18.91-7.928 22.76.002 1.762.1079 2.021 1.022 2.502 1.715.9037 4.55 1.122 16.17 1.246 6.33.0675 12.16.0251 12.95-.0942l1.439-.2168.0543-1.057c.0792-1.542 3.938-11.54 6.097-15.8.9577-1.89 1.514-2.053 6.988-2.053 2.612 0 4.74.1157 5.036.2739.943.5047.6243 1.858-1.758 7.464-1.249 2.938-2.569 6.232-2.934 7.321-.6241 1.859-.6394 2.031-.2533 2.841.8378 1.757 3.253 2.127 5.24.8023 1.058-.7049 2.011-2.548 5.91-11.43 1.534-3.492 3.027-6.588 3.318-6.879.4365-.437.9568-.5448 2.987-.6192 2.73-.1 4.383.3474 4.438 1.201.0673 1.052-.1736 1.7-2.55 6.86-2.781 6.038-4.316 9.754-4.421 10.7l-.0712.6412 3.704.2129c5.52.3172 15.99.111 16.26-.3202.1165-.1885.2917-1.224.3894-2.302.444-4.9 2.088-8.711 5.02-11.64 3.778-3.776 8.417-5.134 17.49-5.121 5.231.008 8.213.3276 8.907.9555 1.081.9779.3487 3.197-1.661 5.036-1.089.9971-1.951 1.142-6.8 1.144-2.574.00079-5.138.1289-5.699.2847-2.852.7918-5.727 5.704-5.727 9.784 0 1.08.1242 1.61.4379 1.87.3586.2974 2.896.3631 14.01.3631 11.73 0 13.63-.054 13.94-.3969.2019-.2183.9982-2.183 1.77-4.366 2.501-7.077 4.364-11.07 5.864-12.57 1.426-1.426 5.329-2.114 12-2.114 7.297 0 9.232 1.161 8.751 5.251-.5028 4.278-2.915 9.054-5.158 10.21-.3939.2037-2.481.5637-4.638.8001s-4.521.6321-5.254.8795c-1.481.4999-2.096 1.16-1.571 1.685.5144.5144 11.01.8253 20.65.6119 8.521-.1886 8.548-.191 8.944-.7956.2185-.3335 1.327-3.088 2.464-6.121 3.125-8.339 4.362-10.57 6.318-11.39 1.522-.6361 6.287-1.13 10.9-1.13 8.102.00014 11.51.9756 12.92 3.696.5235 1.013.5981 1.482.505 3.173-.1106 2.01-.5788 3.571-2.711 9.038-.5482 1.405-.9292 2.731-.8467 2.946.1236.3221 1.239.4232 6.322.5733 3.394.1002 7.949.0841 10.12-.0359l3.951-.2182 1.893-5.292c2.3-6.428 3.235-8.637 4.481-10.58 1.576-2.463 3.465-2.986 11.65-3.226 6.085-.1783 7.748.0752 9.053 1.38.8254.8255.869.9669.869 2.824 0 2.441-.5188 4.503-1.822 7.241-1.088 2.284-2.328 3.892-3.451 4.473-.383.198-2.121.4994-3.863.6697-1.742.1703-3.726.4146-4.409.5428-2.619.4916-3.854 1.425-2.66 2.01.2547.1247 9.601.2607 20.77.3022l20.31.0755v.7373c0 2.213-1.884 4.995-4.335 6.4l-1.353.7762-70.67.004-1.375-.6853c-2.5-1.246-3.963-3.853-3.682-6.561.07739-.7441.8539-3.139 1.725-5.322 1.833-4.59 2.43-6.857 1.935-7.351-.397-.3968-5.898-.3618-6.963.0443-.9635.3673-1.218.9258-3.531 7.754-2.396 7.072-3.662 9.821-5.134 11.15l-1.072.9688-88.04-.022c-74.48-.0187-88.27-.0791-89.57-.3922zm177.1-3.035c.8524-.9125 2.595-5.227 4.897-12.12 1.703-5.101 2.206-6.043 3.589-6.722 1.296-.636 5.879-1.05 8.115-.7336 4.579.6485 4.829 3.054 1.232 11.83-.8327 2.032-1.439 3.916-1.439 4.472 0 1.237.8806 2.794 1.943 3.438.8085.4894 1.915.5078 34.97.5846 22.68.0527 34.44-.0114 35.06-.191 1.078-.3146 2.985-1.803 2.765-2.159-.08914-.1442-7.66-.2439-18.59-.2448-11.87-.001-18.79-.0989-19.42-.2748-3.602-1-3.696-4.811-.1632-6.622 1.329-.6815 2.904-1.003 7.061-1.441 2.451-.2581 3.694-.5042 4.015-.7945 1.679-1.52 3.967-8.454 3.184-9.651-.211-.3226-1.14-.4126-4.966-.4811-5.348-.0957-9.851.4112-10.73 1.208-1.034.9333-2.428 4.14-5.206 11.97-1.037 2.923-1.88 4.874-2.288 5.292l-.646.6615-9.85.0827c-11.9.1-12.96.0209-14.03-1.045-.7192-.7192-.7692-.8933-.6579-2.289.06845-.858.5451-2.597 1.103-4.024 1.969-5.036 2.346-6.25 2.476-7.97.1597-2.112-.1943-2.604-2.367-3.294-2.926-.9287-15.82-.7576-17.94.2382-.8898.4176-2.659 4.01-4.455 9.049-1.645 4.613-3.198 7.987-4.018 8.729-.5629.5093-1.002.5238-15.83.5238-15.06 0-15.27-.007-16.49-.5704-1.422-.6574-1.897-1.376-1.895-2.868.002-1.561.6975-2.664 2.234-3.541 1.552-.8862 3.209-1.254 7.792-1.728 2.486-.2573 3.425-.4602 3.832-.828 1.191-1.078 3.163-6.117 3.163-8.082 0-1.345-.3921-1.432-6.457-1.432-6.855 0-8.871.3197-9.796 1.553-1.261 1.681-2.769 5.194-5.431 12.65-.7628 2.137-1.626 4.101-1.917 4.366-.4786.4336-1.32.497-8.639.6509-11.51.2421-21.53.001-22.59-.5441-1.337-.6833-1.837-1.609-1.985-3.673-.3192-4.461 2.045-9.818 5.395-12.22 1.835-1.318 3.293-1.583 8.72-1.587 4.366-.003 4.828-.0474 5.243-.506.2951-.3261.3568-.5636.1756-.6757-.495-.3059-9.871-.2149-12.06.117-8.761 1.33-12.26 5.175-13.46 14.81-.3415 2.733-.4498 3.095-1.093 3.648l-.7143.6144-11.59-.0766c-10.75-.071-11.63-.1113-12.12-.5554-1.479-1.339-.7706-3.891 3.879-13.97 1.183-2.565 2.151-4.745 2.151-4.844 0-.0988-.4877-.1431-1.084-.0983l-1.084.0814-2.368 5.424c-3.189 7.307-5.023 11.07-5.883 12.09-.7474.8819-2.645 1.732-4.587 2.055-3.426.5701-7.069-2.637-6.546-5.762.2616-1.563 1.42-4.755 3.423-9.431.9483-2.214 1.724-4.078 1.724-4.143 0-.0644-1.453-.0837-3.23-.0428l-3.23.0743-1.535 3.546c-.8442 1.95-2.199 5.271-3.011 7.379l-1.476 3.833.5519.7464c.7097.9599.709 2.131-.002 2.774-.6976.6313-4.77.8524-16.26.8829-12.04.0319-17.73-.605-19.85-2.223-3.457-2.637-1.622-10.87 6.165-27.65 3.517-7.581 4.133-9.702 2.994-10.31-.3697-.1979-1.806-.1285-5.093.2459-18.24 2.077-30.2 3.183-34.56 3.194-5.026.0131-2.923.5258 3.467.8453 4.028.2014 8.684.1955 16.55-.021 6.018-.1657 11.05-.2351 11.18-.1543.4412.2726.2419 2.112-.3576 3.301-1.039 2.061-1.507 2.179-12.9 3.275-13.42 1.291-15.3 1.443-20.51 1.656-3.709.152-4.335.2322-3.572.4569.5906.1738 6.917.2757 17.46.2812l16.54.009-.0652 1.058c-.0359.5821-.3382 1.589-.6718 2.239-1.115 2.17-1.226 2.195-15.4 3.429-6.839.5955-14.58 1.221-17.21 1.389-4.631.2975-4.826.2893-6.709-.2826-1.066-.3239-1.994-.5342-2.061-.4673-.1759.1759 1.507 1.413 2.367 1.74 1.853.7046 7.108.8887 21.31.7465 11.14-.1115 14.4-.0716 14.5.1776.0678.1768-.2864 1.386-.7873 2.687-2.343 6.087-3.87 10.76-3.87 11.85 0 2.641 2.485 4.39 7.011 4.934.8731.105 40.32.2072 87.67.2271l86.08.0362zm-35.19-11.96c-.3594-.1886-.8297-.657-1.045-1.041-.3678-.6553-.3313-.8202.5981-2.701.5444-1.102 1.372-2.408 1.839-2.903.7245-.7678 1.09-.9279 2.49-1.09 3.636-.4216 4.827.9558 3.424 3.96-.7973 1.707-1.921 3.028-2.937 3.45-1.307.5433-3.625.7157-4.37.3251zm3.942-3.546c.6827-.8679.6919-1.155.03722-1.155-.4394 0-1.606 1.231-1.606 1.694 0 .4431 1.568-.5395 1.568-.5395zm86.89 3.558c-.8795-.4252-1.259-1.575-.8901-2.694.438-1.327 2.242-4.025 3.042-4.549.4742-.3107 1.295-.4575 2.684-.4802 1.882-.0307 2.039.0113 2.641.7098.8179.9482.8063 1.599-.05916 3.336-1.086 2.179-2.348 3.342-4.01 3.694-1.692.3591-2.64.3543-3.408-.017zm4.212-3.83c.6723-1.154.1432-1.395-.8606-.391-.4349.435-.7908.9273-.7908 1.094 0 .6114 1.178.1099 1.651-.7031z" style="stroke-width:.2646" inkscape:connector-curvature="0" sodipodi:nodetypes="ccccsscccscccscscsccccssccscscccccscscccsccccccsccscscccscscccsscsccccscscsccccccsscsccsccscsccccscsccsccccccsccssccccccssccccccccccccccscscccccsscscsccsccccccccccsccsscssscccccccscscscscccsccccccsscccsccscsccccccsccccsscccccccscccccsc"/>
   <path transform="matrix(.2646 0 0 .2646 -43.7 62.14)" d="m-635.2 532.7c-85.82-.237-95.81-.3226-99.16-.8487-14.69-2.303-23.24-8.228-24.03-16.64-.1746-1.87-.024-3.124.7503-6.25 1.386-5.595 6.195-19.85 11.38-33.73 4.715-12.63 5.771-16.24 4.908-16.77-1.047-.6474-11.66-.7611-61.27-.6565-53.12.1121-58.32.008-67.68-1.359-5.53-.8071-9.571-2.638-13.4-6.072l-1.781-1.598 1.57.2342c.8637.1288 3.757.8746 6.429 1.657 6.176 1.809 9.739 2.005 22 1.207 25.61-1.665 94.53-7.566 106.8-9.147 10.58-1.359 15.41-2.906 17.55-5.63 2.547-3.232 4.497-8.616 4.911-13.56l.247-2.946-49.6-.009c-48.78-.009-77.38-.3702-79.08-.9993-.8082-.299-.818-.3333-.1545-.5405.3896-.1217 7.458-.5479 15.71-.9471 19.68-.9521 27.53-1.585 68.93-5.557 39.8-3.819 46.57-4.832 50.99-7.642 3.465-2.203 6.371-8.567 6.465-14.16.0332-1.983-.1053-3.074-.4418-3.482-.4316-.5229-1.477-.5931-8.75-.5871-4.543.004-14.13.1589-21.3.3447-45.93 1.19-64.31 1.191-82.14.005-7.283-.4847-15.36-1.387-16.05-1.795-.7059-.4132-1.837-.337 10.52-.7085 22.11-.665 56.88-3.839 119.8-10.94 18.61-2.098 27.98-2.711 29.45-1.925 2.627 1.406 2.081 6.471-1.753 16.28-2.089 5.343-3.959 9.609-10.6 24.18-16.75 36.75-24.87 58.98-27.84 76.16-1.036 6.011-1.138 13.89-.2237 17.32 2.362 8.866 7.866 12.6 22.04 14.95 11.18 1.856 23.28 2.535 49.64 2.787 31.42.3008 59.09-.4762 66.38-1.864 3.287-.6257 4.6-1.382 5.538-3.189 1.437-2.77.6854-6.44-2.053-10.03l-1.258-1.648.733-1.846c.4031-1.015 2.251-5.783 4.107-10.6 4.059-10.53 9.954-24.89 14.51-35.36l3.34-7.679 7.479-.2685c4.114-.1477 9.488-.228 11.94-.1786 4.168.084 4.456.1351 4.347.7703-.0647.3742-2.293 5.838-4.952 12.14-8.943 21.21-13.11 32.63-14.03 38.43-.8601 5.438 1.053 10.38 5.891 15.22 5.781 5.78 12.89 7.983 20.59 6.382 5.302-1.102 10.47-3.239 13.92-5.76 3.862-2.817 9.378-13.78 25.86-51.38l7.201-16.43 2.815-.2746c3.587-.35 5.187-.1094 4.884.7342-.1209.3365-3.351 7.523-7.178 15.97-14.15 31.22-17.93 41.32-17.93 47.89 0 3.976 1.671 6.942 4.313 7.653 2.878.7748 13.89 1.051 50.69 1.274l37.68.2274 2.161-2.093c2.675-2.591 2.978-3.543 4.429-13.93.573-4.1 1.304-8.739 1.625-10.31 4.858-23.8 14.48-35.77 33.89-42.15 5.007-1.645 11.86-3.16 16.93-3.742 4.978-.5717 26.42-1.153 33.83-.9164 8.828.2814 10.18.4454 10.18 1.235 0 .86-1.783 2.473-3.241 2.932-.7319.2305-7.749.5077-17.47.6904-20.53.3857-23.02.7042-29.11 3.717-12.68 6.276-23.25 24.92-24.32 42.87-.5586 9.421 1.391 15.73 5.757 18.63 2.283 1.516 4.989 2.04 13.51 2.615 18.44 1.246 83.99 1.005 100.1-.3677 4.981-.4248 6.04-.7918 7.091-2.456 1.47-2.329 4.296-9.228 8.572-20.93 8.972-24.55 14.22-36.56 18.44-42.19 2.37-3.166 6.449-4.691 14.61-5.462 6.224-.5876 30.7-.8741 37.14-.4347 6.924.4722 8.162.8435 9.08 2.723.6266 1.284.6499 1.662.2652 4.322-1.131 7.824-6.309 21.31-10.24 26.67-2.162 2.948-3.796 3.423-16.92 4.922-11.43 1.305-18.4 2.521-22.67 3.954-6.382 2.138-10.76 5.402-12.8 9.528-1.014 2.059-1.177 2.79-1.299 5.83-.1771 4.41.4758 6.606 2.585 8.691 1.671 1.652 5.302 3.556 7.92 4.152 3.168.7211 20.8 1.031 58.72 1.031 37.52 0 55.84-.3267 58.29-1.04 2.331-.6781 4.182-3.416 8.415-12.44 2.302-4.909 5.154-12.03 8.824-22.03 6.667-18.16 12.29-29.97 15.7-32.97.8336-.732 1.986-1.243 3.656-1.62 6.893-1.556 25.09-2.58 39.94-2.247 17.99.4037 24.28 1.299 29.91 4.251 3.503 1.838 4.369 4.258 3.814 10.66-.5334 6.148-1.648 9.795-8.524 27.88-3.231 8.499-4.626 13.71-4.906 18.34-.175 2.886-.1071 3.796.3493 4.679.9556 1.848 3.788 4.355 5.746 5.085 4.264 1.591 6.31 1.658 47.7 1.568l39.09-.0853 1.385-1.343c2.664-2.584 4.557-6.754 10.5-23.13 12.02-33.13 16.13-42.04 20.42-44.25 5.15-2.663 25.24-4.242 44.53-3.5 5.696.2193 10.94.5692 11.66.7776 1.802.5259 2.26 1.76 1.965 5.295-.8263 9.907-8.384 28.86-12.65 31.73-1.731 1.164-4.98 1.784-16.6 3.167-15.8 1.88-21.03 3.048-25.98 5.796-3.038 1.689-6.377 5.058-7.703 7.772-.9095 1.862-1.046 2.541-1.042 5.179.004 2.586.1452 3.303.9502 4.836 1.247 2.375 3.73 4.614 6.613 5.963 1.911.8944 3.034 1.148 6.136 1.388 2.088.1612 31.44.4476 65.23.6364 66.58.3721 74.82.5254 74.82 1.393 0 1.166-5.44 5.428-8.859 6.941-1.568.6938-2.62.7491-19.35 1.017-38.68.6207-229.8.0442-239.7-.723-5.291-.4098-6.852-.9654-9.122-3.247-2.886-2.901-4.758-7.025-4.772-10.51-.01036-2.704 1.465-7.38 5.866-18.59 8.379-21.33 10.28-30.32 7.697-36.33-2.459-5.715-11.11-8.227-25.49-7.404-9.008.5155-15.71 1.664-18.75 3.213-4.74 2.418-6.737 6.228-13.2 25.17-10.07 29.54-15.35 42.33-19.28 46.7l-1.847 2.054-232.2-.0609c-127.7-.0335-275.1-.1795-327.6-.3245zm784.5-47.11c4.321-.8916 7.262-2.352 9.915-4.924 2.678-2.596 4.714-5.611 6.954-10.3 2.801-5.863 2.742-8.527-.2605-11.87-2.312-2.572-2.695-2.664-10.24-2.471-8.707.2228-9.338.4523-13.01 4.733-4.375 5.105-8.631 12.96-8.954 16.53-.3924 4.328 1.637 7.466 5.61 8.674 1.676.5098 6.601.3261 9.987-.3725zm-343.3-.2128c4.392-.9071 6.352-1.806 8.719-3.997 4.677-4.33 8.831-11.97 9.471-17.41.4413-3.755-1.567-6.734-5.285-7.838-3.666-1.089-12.18-.5822-15.71.9343-3.139 1.35-6.862 6.262-10.96 14.47-2.715 5.43-3.163 7.043-2.44 8.775.7511 1.798 3.03 4.202 4.706 4.965 1.848.8417 7.675.8946 11.5.1045z" style="fill-opacity:.9671;fill:#c4d797;stroke-linecap:round;stroke-linejoin:round;stroke-opacity:.9686;stroke-width:.9449;stroke:#c4d797" inkscape:connector-curvature="0"/>
  </g>
 </g>
</svg>
