<svg id="b9b058d6-a1e0-4df3-8fdd-4deecc32cd44" data-name="e32d0c24-beb0-442e-a0f9-3018d7f0f7f2" xmlns="http://www.w3.org/2000/svg" xmlns:xlink="http://www.w3.org/1999/xlink" viewBox="0 0 266.13 35.39"><defs><style>.a643d699-1f34-411f-b2f2-8dea44a5105a{fill:#fbb040;}.b2dbc421-ebb8-4d97-8ff7-27fe77ea94c7{fill:#fff;}.a6837d73-757d-4fbe-9dd2-01cb7ed0d816{fill:#f0b41d;}.beb2ddce-0a49-4555-b972-9a454a7fa800{fill:url(#be831aae-ebe1-444e-be83-8db9557489a9);}.b5fa6c62-3efd-435a-81d1-3e725a1adaac{fill:url(#f52b5648-96ef-4fe5-a2a1-db5997fb0d37);}.bf5979ca-ea81-447a-ba3c-765996da1101{fill:url(#a0c32325-8949-40b2-9fed-caa457de794d);}.a2f9049c-6d3c-4c0c-9c07-9fe086c85575{fill:#00562d;}.a05b085a-d10c-4e41-a32e-5ea8133ca261,.a2f9049c-6d3c-4c0c-9c07-9fe086c85575,.a7d4676e-31b4-4db7-a513-bd6e9de53b25,.ab06a2cc-f02e-4e51-989e-8bb28217e7ec,.b4b14cf9-e508-4528-b9d6-305b5ee2acf1,.bc0a1d2c-87b8-4a31-81b3-3cbcb8e3a21e,.ff9a76bc-45b5-4329-8433-d2d8585e4e99{opacity:0.5;isolation:isolate;}.ac001291-f91e-47a5-bb10-d9d892efe632{fill:#236399;}.ab06a2cc-f02e-4e51-989e-8bb28217e7ec{fill:#4b7b39;}.a05b085a-d10c-4e41-a32e-5ea8133ca261{fill:#8c6026;}.b4b14cf9-e508-4528-b9d6-305b5ee2acf1{fill:#a24f24;}.a7d4676e-31b4-4db7-a513-bd6e9de53b25{fill:#005b33;}.bc0a1d2c-87b8-4a31-81b3-3cbcb8e3a21e{fill:#084e32;}.ff9a76bc-45b5-4329-8433-d2d8585e4e99{fill:#0c8643;}.e4a11b00-73bf-4560-80de-20613fda919c{fill:none;}</style><linearGradient id="be831aae-ebe1-444e-be83-8db9557489a9" x1="13.4" y1="-624.18" x2="37.34" y2="-624.18" gradientTransform="matrix(1, 0, 0, -1, -7.4, -605.87)" gradientUnits="userSpaceOnUse"><stop offset="0" stop-color="#3276bb"/><stop offset="1" stop-color="#00aeef"/></linearGradient><linearGradient id="f52b5648-96ef-4fe5-a2a1-db5997fb0d37" x1="14.14" y1="-624.18" x2="38.08" y2="-624.18" gradientTransform="matrix(1, 0, 0, -1, -7.4, -605.87)" gradientUnits="userSpaceOnUse"><stop offset="0" stop-color="#fcc648"/><stop offset="1" stop-color="#f15a29"/></linearGradient><linearGradient id="a0c32325-8949-40b2-9fed-caa457de794d" x1="7.39" y1="-624.32" x2="46.11" y2="-624.32" gradientTransform="matrix(1, 0, 0, -1, -7.4, -605.87)" gradientUnits="userSpaceOnUse"><stop offset="0" stop-color="#009444"/><stop offset="1" stop-color="#d7df23"/></linearGradient></defs><title>uber_conf_intro_2021</title><path class="a643d699-1f34-411f-b2f2-8dea44a5105a" d="M46,35.14h-.55v-3.8H44.26v-.45h3v.48H46Z" transform="translate(0.01)"/><path class="a643d699-1f34-411f-b2f2-8dea44a5105a" d="M50.94,35.14H50.4v-2h-2v2h-.5V30.89h.54v1.8h2v-1.8H51Z" transform="translate(0.01)"/><path class="a643d699-1f34-411f-b2f2-8dea44a5105a" d="M54.33,35.14H52.1V30.89h2.22v.48H52.66v1.32h1.55v.48H52.66v1.52h1.68Z" transform="translate(0.01)"/><path class="a643d699-1f34-411f-b2f2-8dea44a5105a" d="M59.89,30.89v2.78a1.87,1.87,0,0,1-.1.62,1.32,1.32,0,0,1-.29.5,1.18,1.18,0,0,1-.49.33,2,2,0,0,1-1.35,0,1.28,1.28,0,0,1-.77-.82,2.05,2.05,0,0,1-.1-.65V30.89h.55v2.8a1.12,1.12,0,0,0,.25.79,1.23,1.23,0,0,0,1.22.2.68.68,0,0,0,.31-.22,1.11,1.11,0,0,0,.18-.34,1.61,1.61,0,0,0,.06-.44V30.89Z" transform="translate(0.01)"/><path class="a643d699-1f34-411f-b2f2-8dea44a5105a" d="M61,35.14V30.89h.54v3.8H63.2v.48Z" transform="translate(0.01)"/><path class="a643d699-1f34-411f-b2f2-8dea44a5105a" d="M64.85,35.14h-.59v-3.8H63.08v-.45h3v.48H64.85Z" transform="translate(0.01)"/><path class="a643d699-1f34-411f-b2f2-8dea44a5105a" d="M67.93,35.14H66.38v-.25l.5-.12v-3.5l-.5-.12v-.26h1.55v.3l-.5.12v3.45l.5.12Z" transform="translate(0.01)"/><path class="a643d699-1f34-411f-b2f2-8dea44a5105a" d="M70.52,35.14,69.2,31.39v3.75h-.54V30.89h.81l1.21,3.49,1.25-3.49h.81v4.28H72.2V31.4L71,35.14Z" transform="translate(0.01)"/><path class="a643d699-1f34-411f-b2f2-8dea44a5105a" d="M76.48,35.14,76,33.81h-1.6l-.47,1.33h-.55L75,30.89h.5L77,35.19Zm-.64-1.81-.43-1.24v-.47h0v.19l0,.16v.13l-.42,1.24Z" transform="translate(0.01)"/><path class="a643d699-1f34-411f-b2f2-8dea44a5105a" d="M78.51,35.14H78v-3.8H76.74v-.45h3v.48H78.51Z" transform="translate(0.01)"/><path class="a643d699-1f34-411f-b2f2-8dea44a5105a" d="M82.6,35.14H80.38V30.89H82.6v.48H80.92v1.32h1.57v.48H80.92v1.52H82.6Z" transform="translate(0.01)"/><path class="a643d699-1f34-411f-b2f2-8dea44a5105a" d="M86.84,31.28a1.39,1.39,0,0,0-.57.12,1.34,1.34,0,0,0-.44.34,1.73,1.73,0,0,0-.28.54,2.91,2.91,0,0,0-.1.72,3,3,0,0,0,.09.73,1.59,1.59,0,0,0,.26.54,1,1,0,0,0,.43.33,1.36,1.36,0,0,0,.6.11,2.09,2.09,0,0,0,.5,0l.46-.12v.47l-.23.08h-.82a2.15,2.15,0,0,1-.83-.16,1.43,1.43,0,0,1-.58-.45,1.9,1.9,0,0,1-.34-.7,3.89,3.89,0,0,1-.11-.9A3,3,0,0,1,85,32a2.13,2.13,0,0,1,.38-.69A1.79,1.79,0,0,1,86,30.9a2.2,2.2,0,0,1,.84-.16,3.05,3.05,0,0,1,.6.06A1.91,1.91,0,0,1,88,31l-.23.46a2,2,0,0,0-.4-.16A2,2,0,0,0,86.84,31.28Z" transform="translate(0.01)"/><path class="a643d699-1f34-411f-b2f2-8dea44a5105a" d="M92.1,33a3.42,3.42,0,0,1-.12.9,2.09,2.09,0,0,1-.35.7,1.43,1.43,0,0,1-.58.45,1.82,1.82,0,0,1-.8.16,2.15,2.15,0,0,1-.83-.16,1.43,1.43,0,0,1-.58-.45,1.9,1.9,0,0,1-.34-.7,4,4,0,0,1,0-1.81,2,2,0,0,1,.34-.69,1.66,1.66,0,0,1,.58-.44,2.15,2.15,0,0,1,.83-.16,2,2,0,0,1,.8.16,1.43,1.43,0,0,1,.58.45,2,2,0,0,1,.35.69A3.42,3.42,0,0,1,92.1,33ZM89,33a3.53,3.53,0,0,0,.08.72,1.52,1.52,0,0,0,.23.54.94.94,0,0,0,.4.34,1.44,1.44,0,0,0,1.15,0,.94.94,0,0,0,.4-.34,1.36,1.36,0,0,0,.23-.54,3.54,3.54,0,0,0,0-1.45,1.52,1.52,0,0,0-.23-.54,1,1,0,0,0-.4-.34,1.39,1.39,0,0,0-.57-.12,1.43,1.43,0,0,0-.58.12,1.1,1.1,0,0,0-.4.34,1.83,1.83,0,0,0-.23.54A3.55,3.55,0,0,0,89,33Z" transform="translate(0.01)"/><path class="a643d699-1f34-411f-b2f2-8dea44a5105a" d="M96.26,35.14h-.6L93.55,31.6h0v3.54h-.5V30.89h.61l2.1,3.53h0V30.89h.52Z" transform="translate(0.01)"/><path class="a643d699-1f34-411f-b2f2-8dea44a5105a" d="M98,35.14h-.54V30.89h2.23v.48H98v1.52h1.57v.48H98Z" transform="translate(0.01)"/><path class="a643d699-1f34-411f-b2f2-8dea44a5105a" d="M102.6,35.14h-2.23V30.89h2.23v.48h-1.68v1.32h1.57v.48h-1.57v1.52h1.68Z" transform="translate(0.01)"/><path class="a643d699-1f34-411f-b2f2-8dea44a5105a" d="M104.09,33.37v1.77h-.54V30.89h1a1.86,1.86,0,0,1,1.15.3,1.13,1.13,0,0,1,.37.91,1.15,1.15,0,0,1-.07.45,1.09,1.09,0,0,1-.19.33,1.18,1.18,0,0,1-.27.23,1.77,1.77,0,0,1-.31.15l1.2,1.91h-.64l-1-1.77Zm0-.46h.48a1.7,1.7,0,0,0,.45,0,.85.85,0,0,0,.3-.15.49.49,0,0,0,.17-.25,1,1,0,0,0,0-.35,1.13,1.13,0,0,0-.06-.36.61.61,0,0,0-.18-.24.73.73,0,0,0-.31-.14H104Z" transform="translate(0.01)"/><path class="a643d699-1f34-411f-b2f2-8dea44a5105a" d="M109.26,35.14h-2.18V30.89h2.18v.48h-1.6v1.32h1.58v.48h-1.58v1.52h1.64Z" transform="translate(0.01)"/><path class="a643d699-1f34-411f-b2f2-8dea44a5105a" d="M113.45,35.14h-.63l-2.11-3.54h0v3.54h-.51V30.89h.62l2.1,3.53h0V30.89h.51Z" transform="translate(0.01)"/><path class="a643d699-1f34-411f-b2f2-8dea44a5105a" d="M116.36,31.28a1.39,1.39,0,0,0-.57.12,1.34,1.34,0,0,0-.44.34,1.73,1.73,0,0,0-.28.54,2.91,2.91,0,0,0-.1.72,3,3,0,0,0,.09.73,1.59,1.59,0,0,0,.26.54,1,1,0,0,0,.43.33,1.36,1.36,0,0,0,.6.11,2.09,2.09,0,0,0,.5,0l.46-.12v.47l-.23.08h-.82a2.15,2.15,0,0,1-.83-.16,1.43,1.43,0,0,1-.58-.45,1.9,1.9,0,0,1-.34-.7,3.89,3.89,0,0,1-.11-.9,3,3,0,0,1,.13-.89,2.13,2.13,0,0,1,.38-.69,1.79,1.79,0,0,1,.61-.45,2.2,2.2,0,0,1,.84-.16,3.05,3.05,0,0,1,.6.06,1.91,1.91,0,0,1,.52.19l-.23.46a2,2,0,0,0-.4-.16A2,2,0,0,0,116.36,31.28Z" transform="translate(0.01)"/><path class="a643d699-1f34-411f-b2f2-8dea44a5105a" d="M120.46,35.14H118.2V30.89h2.22v.48h-1.64v1.32h1.57v.48h-1.57v1.52h1.68Z" transform="translate(0.01)"/><path class="a643d699-1f34-411f-b2f2-8dea44a5105a" d="M123.51,35.14H123V30.89h2.23v.48h-1.69v1.52h1.57v.48h-1.57Z" transform="translate(0.01)"/><path class="a643d699-1f34-411f-b2f2-8dea44a5105a" d="M129.41,33a3.42,3.42,0,0,1-.12.9,2.09,2.09,0,0,1-.35.7,1.43,1.43,0,0,1-.58.45,1.82,1.82,0,0,1-.8.16,2.15,2.15,0,0,1-.83-.16,1.43,1.43,0,0,1-.58-.45,1.9,1.9,0,0,1-.34-.7,4,4,0,0,1,0-1.81,2,2,0,0,1,.34-.69,1.66,1.66,0,0,1,.58-.44,2.15,2.15,0,0,1,.83-.16,2,2,0,0,1,.8.16,1.43,1.43,0,0,1,.58.45,2,2,0,0,1,.35.69A3.42,3.42,0,0,1,129.41,33Zm-3.14,0a3.53,3.53,0,0,0,.08.72,1.52,1.52,0,0,0,.23.54.94.94,0,0,0,.4.34,1.44,1.44,0,0,0,1.15,0,.94.94,0,0,0,.4-.34,1.36,1.36,0,0,0,.23-.54,3.54,3.54,0,0,0,0-1.45,1.52,1.52,0,0,0-.23-.54,1,1,0,0,0-.4-.34,1.39,1.39,0,0,0-.57-.12,1.43,1.43,0,0,0-.58.12,1.1,1.1,0,0,0-.4.34,1.83,1.83,0,0,0-.23.54,3,3,0,0,0-.09.73Z" transform="translate(0.01)"/><path class="a643d699-1f34-411f-b2f2-8dea44a5105a" d="M130.91,33.37v1.77h-.54V30.89h1a1.86,1.86,0,0,1,1.15.3,1.13,1.13,0,0,1,.37.91,1.15,1.15,0,0,1-.07.45,1.06,1.06,0,0,1-.16.34,1.18,1.18,0,0,1-.27.23,1.77,1.77,0,0,1-.31.15l1.2,1.91h-.62l-1-1.77Zm0-.46h.48a1.7,1.7,0,0,0,.45,0,.85.85,0,0,0,.3-.15.49.49,0,0,0,.17-.25,1,1,0,0,0,0-.35,1.13,1.13,0,0,0-.06-.36.61.61,0,0,0-.18-.24.73.73,0,0,0-.31-.14h-.91Z" transform="translate(0.01)"/><path class="a643d699-1f34-411f-b2f2-8dea44a5105a" d="M137.72,34a1.11,1.11,0,0,1-.1.51.9.9,0,0,1-.29.38,1.35,1.35,0,0,1-.46.24,1.8,1.8,0,0,1-.61.08,3.14,3.14,0,0,1-.61-.05,1.36,1.36,0,0,1-.47-.15v-.52l.23.09.27.08.29.06h.29a1,1,0,0,0,.69-.18.6.6,0,0,0,.22-.5.66.66,0,0,0,0-.28.48.48,0,0,0-.15-.22,1.81,1.81,0,0,0-.29-.19l-.45-.2a2.35,2.35,0,0,1-.45-.22,1.18,1.18,0,0,1-.32-.27,1.16,1.16,0,0,1-.18-.35,1.76,1.76,0,0,1-.07-.4,1.22,1.22,0,0,1,.09-.46,1.06,1.06,0,0,1,.26-.34,1.59,1.59,0,0,1,.41-.21,1.81,1.81,0,0,1,.52-.07,3.38,3.38,0,0,1,.63.07,3,3,0,0,1,.5.17l-.2.46a3.12,3.12,0,0,0-.43-.15,2.07,2.07,0,0,0-.5-.06.84.84,0,0,0-.55.17.59.59,0,0,0-.2.45.71.71,0,0,0,0,.29.54.54,0,0,0,.15.22,1,1,0,0,0,.27.19l.41.18.47.22a1.2,1.2,0,0,1,.34.25.86.86,0,0,1,.2.33A1.24,1.24,0,0,1,137.72,34Z" transform="translate(0.01)"/><path class="a643d699-1f34-411f-b2f2-8dea44a5105a" d="M142.08,33a3.42,3.42,0,0,1-.12.9,2.09,2.09,0,0,1-.35.7A1.43,1.43,0,0,1,141,35a1.82,1.82,0,0,1-.8.16,2.15,2.15,0,0,1-.83-.16,1.43,1.43,0,0,1-.58-.45,1.9,1.9,0,0,1-.34-.7,4,4,0,0,1,0-1.81,2,2,0,0,1,.34-.69,1.66,1.66,0,0,1,.58-.44,2.15,2.15,0,0,1,.83-.16,2,2,0,0,1,.8.16,1.43,1.43,0,0,1,.58.45,2,2,0,0,1,.35.69A3.42,3.42,0,0,1,142.08,33Zm-3.14,0a3.53,3.53,0,0,0,.08.72,1.52,1.52,0,0,0,.23.54.94.94,0,0,0,.4.34,1.44,1.44,0,0,0,1.15,0,.94.94,0,0,0,.4-.34,1.36,1.36,0,0,0,.23-.54,3.54,3.54,0,0,0,0-1.45,1.52,1.52,0,0,0-.23-.54,1,1,0,0,0-.4-.34,1.39,1.39,0,0,0-.57-.12,1.43,1.43,0,0,0-.58.12,1.1,1.1,0,0,0-.4.34,1.83,1.83,0,0,0-.23.54A3.55,3.55,0,0,0,138.94,33Z" transform="translate(0.01)"/><path class="a643d699-1f34-411f-b2f2-8dea44a5105a" d="M143.58,35.14H143V30.89h2.22v.48h-1.68v1.52h1.57v.48h-1.57Z" transform="translate(0.01)"/><path class="a643d699-1f34-411f-b2f2-8dea44a5105a" d="M147.2,35.14h-.54v-3.8h-1.22v-.45h3v.48h-1.23Z" transform="translate(0.01)"/><path class="a643d699-1f34-411f-b2f2-8dea44a5105a" d="M150.88,30.89h.58l.67,2.51.09.33.08.32.06.29v-.27l0-.29.06-.29.59-2.6h.6l-1,4.26h-.55l-.74-2.75-.08-.31-.07-.3-.07-.31-.06.31-.07.3-.08.32-.76,2.74h-.52l-1.14-4.26h.58l.65,2.6a.55.55,0,0,0,.06.28V34l.06-.32a.55.55,0,0,1,.07-.31Z" transform="translate(0.01)"/><path class="a643d699-1f34-411f-b2f2-8dea44a5105a" d="M156.78,35.14l-.47-1.33h-1.6l-.51,1.33h-.54l1.57-4.3h.5l1.58,4.3Zm-.64-1.81-.43-1.24V31.8l-.05-.18h0v.48l-.42,1.24Z" transform="translate(0.01)"/><path class="a643d699-1f34-411f-b2f2-8dea44a5105a" d="M158.47,33.37v1.77h-.54V30.89h1a1.86,1.86,0,0,1,1.15.3,1.13,1.13,0,0,1,.37.91,1.15,1.15,0,0,1-.07.45,1.09,1.09,0,0,1-.19.33,1.18,1.18,0,0,1-.27.23,1.77,1.77,0,0,1-.31.15l1.17,1.92h-.58l-1-1.77Zm0-.46H159a1.69,1.69,0,0,0,.45,0,.85.85,0,0,0,.3-.15.49.49,0,0,0,.17-.25,1,1,0,0,0,0-.35,1.13,1.13,0,0,0-.06-.36.61.61,0,0,0-.18-.24.73.73,0,0,0-.31-.14h-.91Z" transform="translate(0.01)"/><path class="a643d699-1f34-411f-b2f2-8dea44a5105a" d="M163.66,35.14h-2.2V30.89h2.2v.48H162v1.32h1.57v.48H162v1.52h1.68Z" transform="translate(0.01)"/><path class="a643d699-1f34-411f-b2f2-8dea44a5105a" d="M169.34,33a3.06,3.06,0,0,1-.14,1,1.64,1.64,0,0,1-.41.68,1.53,1.53,0,0,1-.65.41,2.39,2.39,0,0,1-.88.14H166.2v-4.3h1.19a2.45,2.45,0,0,1,.81.13,1.51,1.51,0,0,1,.62.4,1.7,1.7,0,0,1,.39.66A2.61,2.61,0,0,1,169.34,33Zm-.58,0a2.64,2.64,0,0,0-.1-.74,1.22,1.22,0,0,0-.28-.51,1.05,1.05,0,0,0-.45-.3,1.81,1.81,0,0,0-.61-.1h-.59v3.35h.47a1.47,1.47,0,0,0,1.17-.43,1.86,1.86,0,0,0,.39-1.26Z" transform="translate(0.01)"/><path class="a643d699-1f34-411f-b2f2-8dea44a5105a" d="M172.51,35.14h-2.25V30.89h2.22v.48H170.8v1.32h1.57v.48H170.8v1.52h1.68Z" transform="translate(0.01)"/><path class="a643d699-1f34-411f-b2f2-8dea44a5105a" d="M175.66,30.89h.56l-1.43,4.28h-.57l-1.35-4.28h.58l.86,2.72q.08.27.15.51l.11.46a2.37,2.37,0,0,1,.11-.46,2,2,0,0,1,.16-.53Z" transform="translate(0.01)"/><path class="a643d699-1f34-411f-b2f2-8dea44a5105a" d="M179.09,35.14h-2.22V30.89h2.22v.48h-1.68v1.32H179v.48h-1.57v1.52h1.68Z" transform="translate(0.01)"/><path class="a643d699-1f34-411f-b2f2-8dea44a5105a" d="M180,35.14V30.89h.54v3.8h1.69v.48Z" transform="translate(0.01)"/><path class="a643d699-1f34-411f-b2f2-8dea44a5105a" d="M186.42,33a3.42,3.42,0,0,1-.12.9,2.09,2.09,0,0,1-.35.7,1.43,1.43,0,0,1-.58.45,1.82,1.82,0,0,1-.8.16,2.15,2.15,0,0,1-.83-.16,1.43,1.43,0,0,1-.58-.45,1.9,1.9,0,0,1-.34-.7,4,4,0,0,1,0-1.81,2,2,0,0,1,.34-.69,1.66,1.66,0,0,1,.58-.44,2.15,2.15,0,0,1,.83-.16,2,2,0,0,1,.8.16,1.43,1.43,0,0,1,.58.45,2,2,0,0,1,.35.69A3.42,3.42,0,0,1,186.42,33Zm-3.14,0a3.53,3.53,0,0,0,.08.72,1.52,1.52,0,0,0,.23.54.94.94,0,0,0,.4.34,1.44,1.44,0,0,0,1.15,0,1,1,0,0,0,.4-.34,1.36,1.36,0,0,0,.23-.54,3.54,3.54,0,0,0,0-1.45,1.52,1.52,0,0,0-.23-.54,1,1,0,0,0-.4-.34,1.39,1.39,0,0,0-.57-.12,1.43,1.43,0,0,0-.58.12,1.1,1.1,0,0,0-.4.34,1.83,1.83,0,0,0-.23.54,3.57,3.57,0,0,0-.1.73Z" transform="translate(0.01)"/><path class="a643d699-1f34-411f-b2f2-8dea44a5105a" d="M189.94,32.14a1.47,1.47,0,0,1-.08.51,1.06,1.06,0,0,1-.26.43,1.18,1.18,0,0,1-.49.3,2.13,2.13,0,0,1-.75.11h-.44v1.65h-.54V30.89h1.06a2.22,2.22,0,0,1,.68.08,1.4,1.4,0,0,1,.47.24,1.05,1.05,0,0,1,.27.39A1.42,1.42,0,0,1,189.94,32.14Zm-2,.9h.38a1.93,1.93,0,0,0,.48,0,.74.74,0,0,0,.34-.15.6.6,0,0,0,.2-.27.92.92,0,0,0,.07-.4.77.77,0,0,0-.24-.62,1.17,1.17,0,0,0-.75-.2H188Z" transform="translate(0.01)"/><path class="a643d699-1f34-411f-b2f2-8dea44a5105a" d="M193.05,35.14h-2.22V30.89h2.22v.48h-1.68v1.32h1.57v.48h-1.57v1.52h1.68Z" transform="translate(0.01)"/><path class="a643d699-1f34-411f-b2f2-8dea44a5105a" d="M194.54,33.37v1.77H194V30.89h1a1.86,1.86,0,0,1,1.15.3,1.13,1.13,0,0,1,.37.91,1.15,1.15,0,0,1-.07.45,1.09,1.09,0,0,1-.19.33,1.18,1.18,0,0,1-.27.23,1.77,1.77,0,0,1-.31.15l1.17,1.92h-.65l-1-1.77Zm0-.46H195a1.69,1.69,0,0,0,.45,0,.85.85,0,0,0,.3-.15.49.49,0,0,0,.17-.25,1,1,0,0,0,0-.35,1.13,1.13,0,0,0-.06-.36.61.61,0,0,0-.18-.24.73.73,0,0,0-.31-.14h-.91Z" transform="translate(0.01)"/><path class="a643d699-1f34-411f-b2f2-8dea44a5105a" d="M199.79,34a1.11,1.11,0,0,1-.1.51.9.9,0,0,1-.29.38,1.35,1.35,0,0,1-.46.24,1.8,1.8,0,0,1-.61.08,3.14,3.14,0,0,1-.61-.05,1.36,1.36,0,0,1-.47-.15v-.52l.23.09.27.08.29.06h.3a1,1,0,0,0,.69-.18.6.6,0,0,0,.22-.5.66.66,0,0,0,0-.28.48.48,0,0,0-.15-.22,1.81,1.81,0,0,0-.29-.19l-.45-.2a2.35,2.35,0,0,1-.45-.22,1.18,1.18,0,0,1-.32-.27.92.92,0,0,1-.19-.35,1.61,1.61,0,0,1-.06-.44,1.22,1.22,0,0,1,.09-.46,1.06,1.06,0,0,1,.26-.34,1.59,1.59,0,0,1,.41-.21,1.81,1.81,0,0,1,.52-.07,3.38,3.38,0,0,1,.63.07,3,3,0,0,1,.5.17l-.2.46a3.12,3.12,0,0,0-.43-.15,2.07,2.07,0,0,0-.5-.06.84.84,0,0,0-.55.17.59.59,0,0,0-.2.45.71.71,0,0,0,0,.29.54.54,0,0,0,.15.22,1,1,0,0,0,.27.19l.41.18.47.22a1.2,1.2,0,0,1,.34.25.86.86,0,0,1,.2.33A1.2,1.2,0,0,1,199.79,34Z" transform="translate(0.01)"/><path class="a643d699-1f34-411f-b2f2-8dea44a5105a" d="M204.72,35.14l-.47-1.33h-1.59l-.45,1.33h-.55l1.57-4.3h.5l1.58,4.3Zm-.64-1.81-.42-1.24V31.8l0-.18h0v.19l-.05.16v.13l-.42,1.24Z" transform="translate(0.01)"/><path class="a643d699-1f34-411f-b2f2-8dea44a5105a" d="M209.07,35.14h-.63l-2.11-3.54h0v3.54h-.5V30.89h.62l2.1,3.53h0V30.89h.51Z" transform="translate(0.01)"/><path class="a643d699-1f34-411f-b2f2-8dea44a5105a" d="M213.39,33a3.06,3.06,0,0,1-.14,1,1.64,1.64,0,0,1-.41.68,1.57,1.57,0,0,1-.66.41,2.39,2.39,0,0,1-.88.14h-1.1v-4.3h1.19a2.45,2.45,0,0,1,.81.13,1.51,1.51,0,0,1,.62.4,1.7,1.7,0,0,1,.39.66A2.66,2.66,0,0,1,213.39,33Zm-.58,0a2.64,2.64,0,0,0-.1-.74,1.22,1.22,0,0,0-.28-.51,1.05,1.05,0,0,0-.45-.3,1.81,1.81,0,0,0-.61-.1h-.59v3.35h.48a1.47,1.47,0,0,0,1.17-.43,1.86,1.86,0,0,0,.39-1.26Z" transform="translate(0.01)"/><path class="a643d699-1f34-411f-b2f2-8dea44a5105a" d="M218.4,35.14l-.47-1.33h-1.6l-.47,1.33h-.55l1.57-4.3h.5l1.58,4.3Zm-.64-1.81-.43-1.24v-.47h0l-.05.19v.29l-.42,1.24Z" transform="translate(0.01)"/><path class="a643d699-1f34-411f-b2f2-8dea44a5105a" d="M220.09,33.37v1.77h-.54V30.89h1a1.86,1.86,0,0,1,1.15.3,1.13,1.13,0,0,1,.37.91,1.15,1.15,0,0,1-.07.45,1.09,1.09,0,0,1-.19.33,1.18,1.18,0,0,1-.27.23,1.77,1.77,0,0,1-.31.15l1.17,1.92h-.64l-1-1.77Zm0-.46h.48a1.69,1.69,0,0,0,.45,0,.85.85,0,0,0,.3-.15.49.49,0,0,0,.17-.25,1,1,0,0,0,0-.35,1.13,1.13,0,0,0-.06-.36.61.61,0,0,0-.18-.24.73.73,0,0,0-.31-.14H220Z" transform="translate(0.01)"/><path class="a643d699-1f34-411f-b2f2-8dea44a5105a" d="M224.82,31.28a1.39,1.39,0,0,0-.57.12,1.41,1.41,0,0,0-.43.34,1.73,1.73,0,0,0-.28.54,2.91,2.91,0,0,0-.1.72,3,3,0,0,0,.09.73,1.59,1.59,0,0,0,.26.54,1,1,0,0,0,.43.33,1.36,1.36,0,0,0,.6.11,2.09,2.09,0,0,0,.5,0l.46-.12v.47l-.23.08h-.82a2.15,2.15,0,0,1-.83-.16,1.43,1.43,0,0,1-.58-.45,1.9,1.9,0,0,1-.34-.7,3.89,3.89,0,0,1-.11-.9A3,3,0,0,1,223,32a2,2,0,0,1,.38-.69,1.79,1.79,0,0,1,.61-.45,2.2,2.2,0,0,1,.84-.16,3.05,3.05,0,0,1,.6.06A1.91,1.91,0,0,1,226,31l-.23.46a2,2,0,0,0-.4-.16A1.68,1.68,0,0,0,224.82,31.28Z" transform="translate(0.01)"/><path class="a643d699-1f34-411f-b2f2-8dea44a5105a" d="M229.74,35.14h-.54v-2h-2v2h-.54V30.89h.54v1.8h2v-1.8h.54Z" transform="translate(0.01)"/><path class="a643d699-1f34-411f-b2f2-8dea44a5105a" d="M232.12,35.14h-1.55v-.25l.5-.12v-3.5l-.5-.12v-.26h1.55v.3l-.5.12v3.45l.5.12Z" transform="translate(0.01)"/><path class="a643d699-1f34-411f-b2f2-8dea44a5105a" d="M234.2,35.14h-.54v-3.8h-1.22v-.45h3v.48h-1.23Z" transform="translate(0.01)"/><path class="a643d699-1f34-411f-b2f2-8dea44a5105a" d="M238.26,35.14h-2.2V30.89h2.2v.48h-1.68v1.32h1.6v.48h-1.6v1.52h1.68Z" transform="translate(0.01)"/><path class="a643d699-1f34-411f-b2f2-8dea44a5105a" d="M241,31.28a1.39,1.39,0,0,0-.57.12,1.41,1.41,0,0,0-.43.34,1.73,1.73,0,0,0-.28.54,2.91,2.91,0,0,0-.1.72,3,3,0,0,0,.09.73,1.59,1.59,0,0,0,.26.54,1,1,0,0,0,.43.33,1.36,1.36,0,0,0,.6.11,2.09,2.09,0,0,0,.5,0l.46-.12v.47l-.23.08h-.82A2.15,2.15,0,0,1,240,35a1.43,1.43,0,0,1-.58-.45,1.9,1.9,0,0,1-.34-.7,3.89,3.89,0,0,1-.11-.9,3,3,0,0,1,.13-.89,2,2,0,0,1,.38-.69,1.79,1.79,0,0,1,.61-.45,2.2,2.2,0,0,1,.84-.16,3.05,3.05,0,0,1,.6.06,1.91,1.91,0,0,1,.52.19l-.23.46a2,2,0,0,0-.4-.16A1.68,1.68,0,0,0,241,31.28Z" transform="translate(0.01)"/><path class="a643d699-1f34-411f-b2f2-8dea44a5105a" d="M244.09,35.14h-.55v-3.8h-1.22v-.45h3v.48H244.1Z" transform="translate(0.01)"/><path class="a643d699-1f34-411f-b2f2-8dea44a5105a" d="M248.2,34a1.11,1.11,0,0,1-.1.51.9.9,0,0,1-.29.38,1.35,1.35,0,0,1-.46.24,1.8,1.8,0,0,1-.61.08,3.14,3.14,0,0,1-.61-.05,1.36,1.36,0,0,1-.47-.15v-.52l.23.09.27.08.29.06h.3a1,1,0,0,0,.69-.18.6.6,0,0,0,.22-.5.66.66,0,0,0,0-.28.48.48,0,0,0-.15-.22,1.81,1.81,0,0,0-.29-.19l-.45-.2a2.35,2.35,0,0,1-.45-.22,1.18,1.18,0,0,1-.32-.27.92.92,0,0,1-.19-.35,1.61,1.61,0,0,1-.06-.44,1.22,1.22,0,0,1,.09-.46,1.06,1.06,0,0,1,.26-.34,1.59,1.59,0,0,1,.41-.21,1.81,1.81,0,0,1,.52-.07,3.47,3.47,0,0,1,.63.11,3,3,0,0,1,.5.17l-.2.46a3.12,3.12,0,0,0-.43-.15,2.07,2.07,0,0,0-.5-.06.84.84,0,0,0-.55.17.59.59,0,0,0-.2.45.71.71,0,0,0,0,.29.54.54,0,0,0,.15.22,1,1,0,0,0,.27.19l.41.18.47.22a1.2,1.2,0,0,1,.34.25.86.86,0,0,1,.2.33A1.23,1.23,0,0,1,248.2,34Z" transform="translate(0.01)"/><polygon class="b2dbc421-ebb8-4d97-8ff7-27fe77ea94c7" points="65.69 27.01 44.6 27.01 44.6 5.43 49.05 5.43 49.05 22.57 61.26 22.57 61.26 5.43 65.69 5.43 65.69 27.01"/><polygon class="b2dbc421-ebb8-4d97-8ff7-27fe77ea94c7" points="169.53 27.01 148.44 27.01 148.44 5.43 169.53 5.43 169.53 9.87 152.88 9.87 152.88 22.57 169.53 22.57 169.53 27.01"/><polygon class="b2dbc421-ebb8-4d97-8ff7-27fe77ea94c7" points="127.11 27.01 122.67 27.01 122.67 5.43 144.25 5.43 144.25 9.87 127.11 9.87 127.11 27.01"/><path class="b2dbc421-ebb8-4d97-8ff7-27fe77ea94c7" d="M91.94,27H70.11V5.42h4.44v8.8l17.39-.08ZM74.55,22.56h13v-4l-13,.09Z" transform="translate(0.01)"/><polygon class="b2dbc421-ebb8-4d97-8ff7-27fe77ea94c7" points="231.19 27.01 226.75 27.01 226.75 5.43 248.34 5.43 248.34 9.87 231.19 9.87 231.19 27.01"/><rect class="b2dbc421-ebb8-4d97-8ff7-27fe77ea94c7" x="228.97" y="14.31" width="19.36" height="4.44"/><rect class="b2dbc421-ebb8-4d97-8ff7-27fe77ea94c7" x="96.8" y="5.43" width="21.01" height="4.44"/><rect class="a6837d73-757d-4fbe-9dd2-01cb7ed0d816" x="49.69" width="4.23" height="4.44"/><rect class="a6837d73-757d-4fbe-9dd2-01cb7ed0d816" x="56.14" width="4.23" height="4.44"/><rect class="b2dbc421-ebb8-4d97-8ff7-27fe77ea94c7" x="96.8" y="14.12" width="21.01" height="4.44"/><rect class="b2dbc421-ebb8-4d97-8ff7-27fe77ea94c7" x="96.8" y="22.57" width="21.01" height="4.44"/><polygon class="b2dbc421-ebb8-4d97-8ff7-27fe77ea94c7" points="222.06 27.01 217.63 27.01 217.63 9.87 205.41 9.87 205.41 27.01 200.97 27.01 200.97 5.43 222.06 5.43 222.06 27.01"/><path class="b2dbc421-ebb8-4d97-8ff7-27fe77ea94c7" d="M196.26,27H175.2V5.42h21.06Zm-16.6-4.44h12.21V9.89H179.66Z" transform="translate(0.01)"/><path class="b2dbc421-ebb8-4d97-8ff7-27fe77ea94c7" d="M18.28,8.61A5.35,5.35,0,0,0,14.67,9c-1.85.9-3.61,3.11-3.66,4a18,18,0,0,0-.53,4,21.94,21.94,0,0,0,2.89,7.69c1,1.25,3.36,2.66,5.12,1.86,0,0,3.31.8,5-1.66s2.76-4.62,2.65-7.33a11.43,11.43,0,0,0-2.36-7C22.31,8.89,20,7.89,18.28,8.61Z" transform="translate(0.01)"/><path class="beb2ddce-0a49-4555-b972-9a454a7fa800" d="M26.93,20.34A30.07,30.07,0,0,1,28,23.41c2.19,7.76.27,11.73-5.68,8.26a20.8,20.8,0,0,1-4.1-3.25h0A40.54,40.54,0,0,1,9.6,14.89,26.71,26.71,0,0,1,8,9.06c-.93-7,2.47-8.17,7.82-4.17a23.6,23.6,0,0,1,3,2.65,2.1,2.1,0,0,1,.74-.17h0A25,25,0,0,0,16,3.66C10-.8,5.17.89,6.12,8.63A33.5,33.5,0,0,0,9.46,19h0v.07c.14.29.29.59.45.88l.05.1h0a45.09,45.09,0,0,0,5.33,8h0l.17.2.27.32h0a26.26,26.26,0,0,0,6.43,5.55c6.66,3.8,9.31-1.37,6.81-10.06a37.61,37.61,0,0,0-1.71-4.62Z" transform="translate(0.01)"/><path class="b5fa6c62-3efd-435a-81d1-3e725a1adaac" d="M9.37,19.45a37.61,37.61,0,0,0-1.71,4.62c-2.49,8.69.15,13.86,6.81,10.06a25.93,25.93,0,0,0,6.66-5.82h0l.12-.14.05-.06h0A45.39,45.39,0,0,0,27,19.33h0l.1-.18h0a33.19,33.19,0,0,0,3.42-10.5c.94-7.78-3.2-9.44-9.11-5a32.26,32.26,0,0,0-4.57,4H17a1.81,1.81,0,0,1,.92-.12,24.61,24.61,0,0,1,2.95-2.64c5.34-4,8.74-2.85,7.84,4.19a26,26,0,0,1-1.58,5.81h0a40,40,0,0,1-8.53,13.4h0a20.23,20.23,0,0,1-4.19,3.35c-5.95,3.46-7.87-.5-5.69-8.26a31.13,31.13,0,0,1,1.06-3.13Z" transform="translate(0.01)"/><path class="bf5979ca-ea81-447a-ba3c-765996da1101" d="M29.74,11.46a36.45,36.45,0,0,0-4.16-.69,2.29,2.29,0,0,1,.28.71h0c1,.14,1.89.31,2.78.52,7.85,1.86,10.37,5.47,4.46,9a23.84,23.84,0,0,1-7.27,2.59h0A40.57,40.57,0,0,1,11,23.74,24.5,24.5,0,0,1,6.44,22.5c-6.59-2.6-5.94-6.13.14-8.86A24.66,24.66,0,0,1,10,12.45a2.49,2.49,0,0,1,.42-.6.93.93,0,0,0,.16-.18l.05-.07a28.74,28.74,0,0,0-5.28,1.69c-6.76,3-7.5,7.74-.25,10.69A28.83,28.83,0,0,0,12,25.74h.37a45.83,45.83,0,0,0,12.27,0h0a28.93,28.93,0,0,0,10.6-3.37C41.78,18.34,38.55,13.51,29.74,11.46Z" transform="translate(0.01)"/><path class="a2f9049c-6d3c-4c0c-9c07-9fe086c85575" d="M17.85,6.59l.49.48.49-.48-.49-.5C18.17,6.25,18,6.42,17.85,6.59Z" transform="translate(0.01)"/><path class="a2f9049c-6d3c-4c0c-9c07-9fe086c85575" d="M18.33,28.52c-.48.47-1,.91-1.42,1.32.47.5.94,1,1.42,1.42.47-.44,1-.92,1.42-1.42C19.27,29.43,18.8,29,18.33,28.52Z" transform="translate(0.01)"/><path class="ac001291-f91e-47a5-bb10-d9d892efe632" d="M16.43,23.19a.76.76,0,0,0,.19-.21c.08-.12.43.06.54-.16a.38.38,0,0,1-.43-.09c-.18-.2,0-.38-.43-.73A1.21,1.21,0,0,1,16.43,23.19Z" transform="translate(0.01)"/><path class="ac001291-f91e-47a5-bb10-d9d892efe632" d="M13,15.94a.66.66,0,0,1-.68.14c.15.24.55.12.55.12a1.13,1.13,0,0,1-.66.94c.66-.12.71-.42.88-.84a1.88,1.88,0,0,1,1.25-1,1,1,0,0,0,.53-.15A2,2,0,0,0,13,15.94Z" transform="translate(0.01)"/><path class="ac001291-f91e-47a5-bb10-d9d892efe632" d="M17.54,25.74c0-.37-.23-.35-.23-.6s.37-.12.47-.45-.41-.43-.41-.43.26.12.25.35-.45.1-.47.47.2.38.17.59-.61.34-1,.31a1,1,0,0,0,1,0A.5.5,0,0,0,18,26h0C17.76,26.15,17.52,26.12,17.54,25.74Z" transform="translate(0.01)"/><path class="ac001291-f91e-47a5-bb10-d9d892efe632" d="M20.22,10.69c.17.33-.23.62-.46.71a.77.77,0,0,0,.57-.3.77.77,0,0,0,.59.12c-.73-.18-.4-.31-.57-.66s-.56-.21-.68-.4.16-.5.16-.5-.51.2-.41.57S20.06,10.36,20.22,10.69Z" transform="translate(0.01)"/><path class="ac001291-f91e-47a5-bb10-d9d892efe632" d="M20.07,12.07A.5.5,0,0,1,20.6,12a1.58,1.58,0,0,0,1.45.09,1.06,1.06,0,0,1,1.12.12.33.33,0,0,0,0-.14s.33-.14.58.48c.09.26.29.15.36-.06a1.08,1.08,0,0,0-.08-.53s.09.41-.09.48-.27-.55-.9-.62-1,.27-1.39.2c.14-.15.07-.26.07-.26s-.16.47-.88.19A.57.57,0,0,0,20.07,12.07Z" transform="translate(0.01)"/><path class="ac001291-f91e-47a5-bb10-d9d892efe632" d="M11.66,13.61c.21.35.46.35.8.15.46.35,1-.26,1.3-.55A1,1,0,0,0,15,13.06s-.71.22-1.06,0-.16-.86-.16-.86-.52.88-1.07.65.23-1,.23-1a2.2,2.2,0,0,0-.82.63.29.29,0,0,1-.35,0l.11.2a.45.45,0,0,0,0,.52c-.09-.4.47-.65.47-.65a.48.48,0,0,0,.3.44c.31.18.81-.19.81-.19l.18.33c-.61.81-1.09.49-1.09.49a.51.51,0,0,0-.17-.4.43.43,0,0,1-.08.47C12,13.94,11.66,13.61,11.66,13.61Z" transform="translate(0.01)"/><path class="ac001291-f91e-47a5-bb10-d9d892efe632" d="M23.66,21.18a1.27,1.27,0,0,1,.39.79s0-.42.19-.55a.65.65,0,0,0,.42-.63S24.55,21.5,23.66,21.18Z" transform="translate(0.01)"/><path class="ac001291-f91e-47a5-bb10-d9d892efe632" d="M22.66,20.58c-.09-.27-.2-.44-.33-.46a.4.4,0,0,1,.09.45.59.59,0,0,0,.17.74s-.24-.26,0-.39.3.08.56,0A.55.55,0,0,1,22.66,20.58Z" transform="translate(0.01)"/><path class="ac001291-f91e-47a5-bb10-d9d892efe632" d="M24.18,16.89a.88.88,0,0,1-.05-.53.54.54,0,0,0-.17-.57s.18.33-.07.46-.21-.11-.9,0A1.42,1.42,0,0,1,24.18,16.89Z" transform="translate(0.01)"/><path class="ac001291-f91e-47a5-bb10-d9d892efe632" d="M26.18,16A1.83,1.83,0,0,0,26,14.64a2.58,2.58,0,0,0-.24-1.34,2.84,2.84,0,0,0-.36-.77,2,2,0,0,0-.41-.82,1.8,1.8,0,0,0-.83-1.24,1.51,1.51,0,0,0-.88-.71,2,2,0,0,0-1.19-.82h0a2.78,2.78,0,0,0-2-.82h-.14l-.54-.06a1.62,1.62,0,0,0-1,.3,1.69,1.69,0,0,0-1.36,0,1.46,1.46,0,0,0-1.14.11,4,4,0,0,0-2.13,1,3.69,3.69,0,0,0-1.53,1.32,8.47,8.47,0,0,0-.79,1l-.08.12a1.07,1.07,0,0,1-.14.16,1.89,1.89,0,0,0-.45.67,2.84,2.84,0,0,0-.08.77,2.49,2.49,0,0,1-.07.77,4.94,4.94,0,0,0-.16,1.58v0a.33.33,0,0,1,0,.14,1.48,1.48,0,0,0,0,.93,2.42,2.42,0,0,1,.21,1.13,1.44,1.44,0,0,0,.1,1.13A3,3,0,0,1,11,20.27a2.63,2.63,0,0,0,.52,1.62c.14.11.15.21.19.42a.33.33,0,0,0,0,.14,1.5,1.5,0,0,0,.6,1,3.32,3.32,0,0,0,1.53,1.73,2.33,2.33,0,0,0,1.23,1,.66.66,0,0,1,.31.21,1.58,1.58,0,0,0,.81.44,2.22,2.22,0,0,0,.89,0,2.54,2.54,0,0,0,.39,0,1.58,1.58,0,0,0,.85-.21,2,2,0,0,0,.71.14,1.71,1.71,0,0,0,.67-.14,2.09,2.09,0,0,0,1.51-.39,1,1,0,0,0,.32-.13,1.7,1.7,0,0,0,1.35-.85h0a2.32,2.32,0,0,1,.49-.67l.07-.06a1.72,1.72,0,0,0,.6-.71,2.17,2.17,0,0,0,.6-.92l.08-.1a3.77,3.77,0,0,0,.81-2.3A2.2,2.2,0,0,0,26,19.23,2.6,2.6,0,0,0,26,18.12a.65.65,0,0,1,.05-.27,1.9,1.9,0,0,0,.08-.71A1.34,1.34,0,0,0,26.18,16Zm-.89-2.41a1.25,1.25,0,0,0,.14.41.56.56,0,0,1,0,.44,2.05,2.05,0,0,1-.41-.16,2.41,2.41,0,0,0,0-.38s0,.21-.19.18a2.25,2.25,0,0,0-.71-.43,1.49,1.49,0,0,1,.36-.17c.08,0,.26.32.53.3S25.29,13.62,25.29,13.62ZM22.34,9.56a1,1,0,0,1,.59.74c.09.5-.08.1-.16-.07a1.47,1.47,0,0,0-.91-.58.67.67,0,0,0,0-.2.6.6,0,0,1,.47.11Zm-.22.51c0,.24,0,.57.17.54s-.07-.4.13-.46.3.5.5.53.23-.36.35-.33.05.31.05.31a.18.18,0,0,1,.22,0c.16.12,0,.74,0,.74l-.21-.18a4.26,4.26,0,0,0-.06-.5s-.09.4-.41.4a.27.27,0,0,1-.28-.24h0v-.06a.58.58,0,0,1-.33.14c-.24-.12-.5-.12-.68-.27s-.15-.51-.15-.51c-.15.1-.2-.07-.33-.16s-.1-.19.09-.11a.48.48,0,0,0,.58-.07C22,9.68,22.12,9.82,22.12,10.07Zm-3.66.29c.05-.71.61-.75.77-1A.91.91,0,0,1,19.84,9a1.15,1.15,0,0,0-.72.19c-.31.23-.47.33-.56,0s.28-.58.62-.69a2.32,2.32,0,0,1,.83,0c.27,0,.55.05.62.22s-.17.27-.25.43c0,0,.54-.36.94-.14s.35.69-.14.66-.63-.16-1-.16c0,0,.51.16.63.35s.58.49.58.86c0,0-.3.23-.19.26s.4-.14.66-.1.48.43,1.23.3a1,1,0,0,1,.55.49c0,.06.09.07.09-.18s0-.46.13-.48.59.66.41.86c.16.07.25.16.38.42a1.68,1.68,0,0,1,.06.74c0,.14.21-.09.21-.09a.53.53,0,0,1,.18.28c0,.17.08.62-.36.29-.15-.13-.19-.21-.16-.33s-.08-.08-.15.05-.61.58-1.15-.14c0,0,.23,0,.3-.16a1.36,1.36,0,0,1-.6-.11,2.49,2.49,0,0,0-1.27,0c-.55.06-1.26.41-1.77-.22a1.38,1.38,0,0,1,.17.63v.3s0-.2.43-.33.46,0,.29.22a1.48,1.48,0,0,0,.44-.25c.23-.17.5-.35.77-.21a.94.94,0,0,0,.46.13l-.16-.16a1.13,1.13,0,0,1,.8.32,1.43,1.43,0,0,0,.52.36,3.46,3.46,0,0,0-1,.28c-.16.07-.34.06-.41-.12a.34.34,0,0,0-.13.16.84.84,0,0,1-.6.38v-.26s-.28.79-.88.76-.62-.5-.62-.5a.74.74,0,0,0,.16-.19,1,1,0,0,1-1.34,0c-.65-.58.3-1.83.3-1.83s-.45.43-.72,0,.69-1.23.69-1.23a.65.65,0,0,1-.65-.63h0Zm-3.71-1A2.58,2.58,0,0,1,16,8.89c.1.06-.23.35-.23.35a1.44,1.44,0,0,0-1.1.71s.59-.57,1-.5c.17,0,.25.24.17.68,0,.17.08.24,0,.41s-.28.41-.36.56a2.58,2.58,0,0,1,1.07-.71,2.27,2.27,0,0,1,.9,0,.72.72,0,0,0-.24-.14.73.73,0,0,0,.06-.54c-.11-.3-.18-.39.09-.39A.36.36,0,0,0,17.76,9h0a.48.48,0,0,1-.48.24l.1-.12a.45.45,0,0,0-.31.55h0c.11.44.05.43-.07.47s-.22-.17-.6.09-.52.21-.49-.15a1.55,1.55,0,0,0-.05-.71,1.1,1.1,0,0,0,.39-.44c.21,0,.54-.1.64,0s-.22.17-.33.3-.15.31,0,.18a.61.61,0,0,1,.35-.21c.15,0,.34-.3.49-.33a2,2,0,0,1,.85,0,2.88,2.88,0,0,0,.13.65c.05.12.17.43-.41.46-.08,0,0,.08.11.11s.24.08.21.23,0,.34-.16.31-.45,0-.26,0,.77.33.62.74c-.09.22-.22.35-.26.49a2.27,2.27,0,0,0-1.84.05.81.81,0,0,0-.39-.2s.54.35-.09.76a.94.94,0,0,1-.89.12.33.33,0,0,0,.28.16.7.7,0,0,1-.53,0c-.19-.15-.17-.58.55-1.48l-.47.45c0,.05-.31.26-.47.07s.22-1,.71-1.51c0,0-.86.66-1.07.35s.38-.88.78-1.17Zm-1,.62c.29-.19.07.27,0,.44s-.08.3-.24.31a7.2,7.2,0,0,0-.78.16,5.41,5.41,0,0,1,1-.91Zm-2.41,8.24c.39-.43,1.05-.75,1,.3a1.72,1.72,0,0,0,.21-.43c.08-.25.14-.39.5-.29s.71.1,1-1a1,1,0,0,0,.24.31.94.94,0,0,1,.13-.83c.29-.32.71-.39,1.39-.55s.83-.61,1.53-.16a1.11,1.11,0,0,0-.31-.3.47.47,0,0,0,.1-.57s-.05.58-1.32.89-1.73.42-2,1.3c-.08.29-.1,1.17-.88.69v-.26a.47.47,0,0,1-.53.39c-.48,0-.35-.25-.35-.25a4.14,4.14,0,0,0-.63.55,1.67,1.67,0,0,0-.21-.87.8.8,0,0,1-.16-.63.53.53,0,0,0,.28.18c.15,0,.59-.05.49.53a.47.47,0,0,0,.24-.35,1.14,1.14,0,0,1,.19-.67l-.39.21a.49.49,0,0,1-.67-.17h0v-.06a2.45,2.45,0,0,1,0-1.56,1.8,1.8,0,0,0,.1-1,1.35,1.35,0,0,1,.31-1c.2-.21.62-.9.8-1.09a1.89,1.89,0,0,1,1.21-.63.72.72,0,0,0-.18.67.81.81,0,0,1,.74-.67c.19,0,.1.21,0,.4a.55.55,0,0,0,.16.74c.33.23,0,.6-.2.75,0,0,.27,0,.36-.17s.21.69,1.38.18a1.21,1.21,0,0,0,.59-.59c.2-.16,1.23-.69,1.69,0s-.27,1.15-.57,1.28a.75.75,0,0,1-1.05-.17l0,0a1.42,1.42,0,0,1-1,1.26c-1,.44-1.82-.1-1.77-.66a.81.81,0,0,0-.09.57,4.2,4.2,0,0,0-1.32.53c-.21.16-.77.31-.71-.62,0,0-.27.65.24.92a1,1,0,0,0,.19.77.77.77,0,0,1,.43-1h0a2.05,2.05,0,0,1,1.78-.3,1.78,1.78,0,0,0,2.1-.67c.11-.17.15-.3.6-.33a2.64,2.64,0,0,0,1.15-.4c.25-.17.27,0,.27.23s.29,1.21-.18,1.44a1.23,1.23,0,0,1-.46-.1,1,1,0,0,1-.45,1.75.73.73,0,0,0-.63.19,1.05,1.05,0,0,0-1.35.26c-.47.41-.6,1-1.07.91a.75.75,0,0,1,.27.29c.11.18.17.41-.14.46a.35.35,0,0,0-.13-.33s0,.47-.59.36-.65-.46-.65-.46a.49.49,0,0,0,0,.17c0,.08,0,.12-.17.2a1.31,1.31,0,0,0-.61.72.6.6,0,0,1-.4-.48.59.59,0,0,0-.42-.43.57.57,0,0,1,.3.51.46.46,0,0,0-.36.09.64.64,0,0,1,0-.86Zm.82,3.47c.4,0,.33-.63.33-.63,1.2.2,1.23-.64,1.23-.64a.6.6,0,0,0,.71-.33,1.3,1.3,0,0,0,.58.14,1.49,1.49,0,0,1-1-.78,1.05,1.05,0,0,0,.29.55c-.54.68-1-.17-1-.17-.07.21.41.71-.1,1a.73.73,0,0,1-.89-.16.41.41,0,0,0-.36-.15c.36.31.36.8.19.9s-.53-.35-.63-1-.17-1.09,0-1.17.23,0,.44.24a4.06,4.06,0,0,0,.49.44c-.1-1.38.8-1.18,1.07-1.11a1.37,1.37,0,0,0,1.35-.22c.24,0,.58.07.58.15a1.42,1.42,0,0,1-.16.45.71.71,0,0,0,.15.95,1.11,1.11,0,0,0,.08.74.26.26,0,0,1,0,.29.61.61,0,0,1-.8.11,1.17,1.17,0,0,0-.9,0,.33.33,0,0,1-.18-.08.76.76,0,0,1,0,.82c-.27.4-.71,0-.71,0a.57.57,0,0,0,.11.28.76.76,0,0,1-.11.41c-.55.47-.75-1-.75-1Zm2,2.94A2.42,2.42,0,0,1,12.81,23c.5-.22.56-.55.56-.55a1,1,0,0,0,.65-.93.36.36,0,0,1,.48-.05,2.2,2.2,0,0,0-.1,1.27l-.25.25a.73.73,0,0,0-.61.35,1,1,0,0,1-.47-.12.65.65,0,0,0,.46.27v.36a1.14,1.14,0,0,1,.3-.55.75.75,0,0,1,.62-.07.44.44,0,0,0-.1-.19c.24-.5.53-.56.53-.56a.41.41,0,0,0-.35.11,1,1,0,0,1,.13-1,.9.9,0,0,0,1-.27.43.43,0,0,1-.07.59h0l-.08.05a.36.36,0,0,0-.22.46h0a.21.21,0,0,0,.06.1.65.65,0,0,0,.3.86c0,.13-.16.22-.28.24a.49.49,0,0,0-.46.51v0c-.75-.12-.77.51-.77.51Zm1.07,1c-.31-.12-1.11-.69-.76-1.1a.47.47,0,0,1,.66,0h0a.59.59,0,0,1,.28.65.91.91,0,0,0,.15-.23.44.44,0,0,0,.51-.25.47.47,0,0,1-.63-.08.53.53,0,0,1-.08-.17c-.25-.58-.13-.71.18-.8s.74-.35.5-1.12c0,0,0,.94-.48.36a.44.44,0,0,1,.21-.58h0a.44.44,0,0,1,.32,0,.53.53,0,0,0-.59,0s-.13-.21.22-.38.23-.63.23-.63a.79.79,0,0,1,.71-.15c.41.12.52.27.49.49s-.19.42.17.69.26.79-.28.67a.53.53,0,0,1,0,.67c-.26.35-.71.18-.92.41,0,0,.33.06.42.27s-.08.32-.23.6a1.12,1.12,0,0,0-.18.5c0,.13-.14.17-.31.14s-.29.11-.6,0Zm3.34-3.88c0,.25-.09.46-.09.8a2.08,2.08,0,0,1-.06.86c-.1.19-.35.16-.46.17a1.52,1.52,0,0,1,.43,1,1.48,1.48,0,0,0,.13.78,1.15,1.15,0,0,0-.05.71,1.11,1.11,0,0,1-1.21.24c-1.06.32-1.33-.35-1.39-.51a1.17,1.17,0,0,0,.45-.13c.52.33.74-.08.74-.08a.55.55,0,0,1-.53,0c-.24-.15,0-.6.15-.89a1.29,1.29,0,0,1,.56-.55.55.55,0,0,0,.36-.38.78.78,0,0,1-.4.21,2.1,2.1,0,0,0,.26-.64.54.54,0,0,0,.33-.26c.21-.36-.15-.6-.39-.79s-.06-.55-.06-.55a.72.72,0,0,1,.24.28,1.58,1.58,0,0,0-.49-.88c-.4-.33-.71-.12-1.12-.15s-.24-.54-.2-.72a.65.65,0,0,0,.51,0,.91.91,0,0,1,.61,0c.17.1.27.09.2,0a.91.91,0,0,0-.75-.16c-.16,0-.74.14-.84-.4s.51-1,.78-1.18.43-.23.17-.2a3.64,3.64,0,0,0-.71.22l-.13-.09c.07-.11,0-.38-.1-.31s.05.11-.1.28a.33.33,0,0,1-.4,0c-.28-.32.21-1,.52-1.28s.81-.45,1-.32-.09.28-.25.42-.55.4-.07.27.45-.51,1-.75a.45.45,0,0,1,.62.16v0h0a.33.33,0,0,1,0,.14.48.48,0,0,0-.16-.39c0-.15.34-.23.46-.28s.31.2.31.76-.29.65-.67.71c.59.13.62.39.66.65s0,.71-.17.79-.4-.3-.87-.51a.94.94,0,0,0-.86.06,1.23,1.23,0,0,1,.71,0,2.11,2.11,0,0,1,1,1,.46.46,0,0,1-.28.55c.6.15.51,1,.5,1.27Zm4.26,3a3.34,3.34,0,0,1-1,.91c-.22.07,0-.33,0-.33.23.08.44-.22.44-.22s-.51.36-.78-.56a1.12,1.12,0,0,1,.38-1.24,1.14,1.14,0,0,0-.26.09c-.11-.57.5-.9.5-.9H22a1.31,1.31,0,0,0,0-.28,1.44,1.44,0,0,0,.71-.15c.25-.08.38-.08.46.36a.42.42,0,0,1-.3.5h-.16a.32.32,0,0,1,.13.36c-.05.25-.39.28-.39.28.47.21.14.68,0,.84s-.13.31.17.1.36,0,.21.24ZM24,15.06a1.76,1.76,0,0,0-1.11.09c-.57.23-1.12.82-1.78.88a1.48,1.48,0,0,1-1.27-.55.72.72,0,0,0-.36-.33.51.51,0,0,1,0,.71h0a.76.76,0,0,1,.59,0,1.91,1.91,0,0,0,1.88,0c.82-.5,1.42-1,1.9-.51,0,0,0-.36.36-.11s.71.61.9.75a.59.59,0,0,0,.51.13s-.08.41-.44.41a.44.44,0,0,0,.53-.26.47.47,0,0,1,0,.57c-.24.32-.48,0-.84.16s-.5.48-1,.08-1-.81-1.53-.31c0,0,.64-.45,1.56.54a.27.27,0,0,1-.19.08,1.61,1.61,0,0,0,.44.05.7.7,0,0,1,.56.55,2.94,2.94,0,0,0,0-.42.42.42,0,0,1,.4-.41h0a.64.64,0,0,0,.43-.06c.08,0,.2.09.2.33a.51.51,0,0,1-.15.37,1.57,1.57,0,0,0-.2-.25s.18.38-.28,1-1,.83-1.2.27-.52-1-1.61-1.09c-.31,0-.88,0-.44-.78,0,0-.17.08-.25,0a.82.82,0,0,0-.38-.25s.61.36.19,1.53A1.73,1.73,0,0,1,23,18c.92.3.83,1,.62,1a1,1,0,0,0,.72.32,1.29,1.29,0,0,0,.88-.63c.22-.29.25-.35.36-.33s.13.3,0,.55-.26.35-.27.53a.65.65,0,0,1,.28-.24,1.53,1.53,0,0,1-.61,1.2s.26-.06.23.16-.25,2.05-1,1.7a1.37,1.37,0,0,1-.08.87c-.08.21-.23.2-.12-.44a1.88,1.88,0,0,0-.23.61,1,1,0,0,1-.51.78c-.26.13-.31,0-.28-.21a.87.87,0,0,0,.15-.75c.19-.13.33-.38.19-.93,0-.17-.09-.27.08-.36a.36.36,0,0,1-.38-.22.84.84,0,0,1-.54.47c-.42.13-.82.13-1-.49a2.79,2.79,0,0,1,.17-1.78.89.89,0,0,1,.91-.66c.24,0,.47.36.68.71,0,0,.48.71,1.07.71a1.11,1.11,0,0,0,.87-.59,1.41,1.41,0,0,1-.93.5c-.49,0-.68-.59-.71-.81V20a3.27,3.27,0,0,1-.35-.48A.88.88,0,0,0,22.05,19h0a1.11,1.11,0,0,1-1.2-.24,1.11,1.11,0,0,0,.39.54c.28.2.12.86.12.86s-.27-.4-.57-.42a1,1,0,0,1,.47.95,1.81,1.81,0,0,1-.66,1.42,1.87,1.87,0,0,0-.83,1.75.48.48,0,0,0-.35-.16A1.32,1.32,0,0,1,20,24.79,1.68,1.68,0,0,1,19.66,26a.57.57,0,0,0,.38-.22.41.41,0,0,0,.52-.14s-.46.27-.41-.27a4.53,4.53,0,0,0-.08-1.22,1.08,1.08,0,0,1,.38-1,1.91,1.91,0,0,0-.46.39s-.25-.84.89-1.48H20.6s.23-.35.46-.38.28.2.45.33a.45.45,0,0,1,.18.61v0a.22.22,0,0,1-.05.08,1,1,0,0,0-.24.48.92.92,0,0,0-.32-.18.73.73,0,0,1,.26.51c0,.26-.26.66-.12,1.07a1.24,1.24,0,0,0,.39.61,1.34,1.34,0,0,0-.1.44.15.15,0,0,1-.28-.1,1.32,1.32,0,0,0-.29.33.86.86,0,0,1-1.12.26c-.32.15-.76.36-1,0a.61.61,0,0,1,.1-.77,1,1,0,0,0,.25-.62s-.08.42-.36.51c0,0-.21-.18-.11-.78s.51-.59.51-.59a1,1,0,0,1-.49-.57,4.27,4.27,0,0,1,.12-1.59,1.07,1.07,0,0,0,.35.32,2.86,2.86,0,0,1-.54-1.72c0-.41.1-1.16.09-1.58s-.23-1.62.71-1.69c.2,0,.55.05.76.83a.84.84,0,0,0,.32.52,1.52,1.52,0,0,1-.25-.65c0-.36-.31-1-.93-.88-.33.05-.84.14-.84-.69s.24-1.68.67-1.74a1.08,1.08,0,0,0,.71,0,1,1,0,0,0,.85.58c.34,0,.38-.19.75-.21l.24-.06s-.4,0-.1-.29a1.41,1.41,0,0,1,1.1-.41,1.69,1.69,0,0,1,1.06-.2,1.57,1.57,0,0,0,.38.3,1.39,1.39,0,0,1-.12-.28s1.19.45,1.18.89l.09-.08s.55.25.09.81c0,0,.2,0,.28-.35a.65.65,0,0,1,0,.71c-.35.54-.85-.26-1.23-.67a.51.51,0,0,0,.09-.16,1.82,1.82,0,0,1-.57,0Z" transform="translate(0.01)"/><path class="ac001291-f91e-47a5-bb10-d9d892efe632" d="M20.11,18.71,20,19a2,2,0,0,0-.4-.87,1.59,1.59,0,0,1,.22,1l-.25-.22a.65.65,0,0,1,.13.64,1.87,1.87,0,0,0,.27,1.86,1.59,1.59,0,0,1-.08-1.23,1.7,1.7,0,0,0-.19.35,1.19,1.19,0,0,1,.16-.92A2,2,0,0,0,20.11,18.71Z" transform="translate(0.01)"/><path class="ab06a2cc-f02e-4e51-989e-8bb28217e7ec" d="M7.66,21.4l0-.16L7,21c-.11.35-.22.71-.32,1.07s-.13.47-.19.71c.26.08.53.15.8.21C7.38,22.48,7.52,22,7.66,21.4Z" transform="translate(0.01)"/><path class="a05b085a-d10c-4e41-a32e-5ea8133ca261" d="M22,24.16c-.48.67-1,1.31-1.49,1.93.84-.05,1.67-.11,2.49-.2l1.42-2C23.66,24,22.85,24.08,22,24.16Z" transform="translate(0.01)"/><path class="b4b14cf9-e508-4528-b9d6-305b5ee2acf1" d="M28.23,11.16c-.06.24-.12.48-.19.72l.6.13,1.15.3c.08-.26.15-.52.21-.79l-.27-.06C29.25,11.35,28.74,11.26,28.23,11.16Z" transform="translate(0.01)"/><path class="a7d4676e-31b4-4db7-a513-bd6e9de53b25" d="M14.66,24.26c-.81-.07-1.61-.16-2.39-.27.44.66.88,1.31,1.35,2q1.22.12,2.49.18C15.66,25.51,15.13,24.89,14.66,24.26Z" transform="translate(0.01)"/><path class="bc0a1d2c-87b8-4a31-81b3-3cbcb8e3a21e" d="M6.18,11.38c.54-.22,1.11-.42,1.69-.61-.06-.24-.13-.46-.2-.68-.59.17-1.16.35-1.71.55C6,10.89,6.1,11.13,6.18,11.38Z" transform="translate(0.01)"/><path class="ff9a76bc-45b5-4329-8433-d2d8585e4e99" d="M29,24.08c-.12-.39-.23-.78-.36-1.18l-.73.21.08.29c.16.54.29,1.06.41,1.57l.8-.2C29.13,24.54,29.07,24.31,29,24.08Z" transform="translate(0.01)"/><line class="e4a11b00-73bf-4560-80de-20613fda919c" x1="255.21" y1="21.33" x2="266.13" y2="21.33"/></svg>